<svg width="18" height="16" viewBox="0 0 18 16" fill="none" xmlns="http://www.w3.org/2000/svg">
<path d="M9 15.7839C8.90895 15.7839 8.81793 15.7604 8.73637 15.7133C8.64777 15.6622 6.54294 14.4401 4.4079 12.5987C3.14249 11.5073 2.13238 10.4249 1.40571 9.38142C0.465348 8.03121 -0.00753804 6.73247 9.08466e-05 5.52124C0.00902052 4.11182 0.513828 2.78637 1.42163 1.78899C2.34476 0.7748 3.5767 0.216309 4.8906 0.216309C6.57447 0.216309 8.114 1.15955 9.00004 2.65376C9.88608 1.15958 11.4256 0.216309 13.1095 0.216309C14.3508 0.216309 15.5351 0.720237 16.4444 1.63528C17.4422 2.63945 18.0092 4.05828 17.9999 5.52792C17.9922 6.73704 17.5105 8.03381 16.5681 9.38216C15.8391 10.4251 14.8304 11.507 13.57 12.5981C11.4428 14.4393 9.35304 15.6614 9.26511 15.7125C9.18317 15.7601 9.09155 15.7839 9 15.7839Z" fill="#68818B"/>
</svg>
