<svg width="98" height="84" viewBox="0 0 98 84" fill="none" xmlns="http://www.w3.org/2000/svg">
<path d="M53.8359 36.4848V18.8623C53.8359 17.7502 54.7458 16.8403 55.8579 16.8403C56.97 16.8403 57.8799 17.7503 57.8799 18.8623V30.8263" stroke="#073141" stroke-width="1.46509" stroke-miterlimit="22.9256"/>
<path d="M57.8803 27.2879C57.8803 26.1758 58.7902 25.2659 59.9023 25.2659C61.0145 25.2659 61.9243 26.1757 61.9243 27.2879V31.3319M65.9684 29.3099C65.9684 28.1978 66.8783 27.2879 67.9904 27.2879C69.1025 27.2879 70.0124 28.1979 70.0124 29.3099V38.916L67.9904 44.929H55.8055L50.9062 38.916V31.3148L53.8364 28.7777M65.9684 31.8374V28.2989C65.9684 27.1868 65.0585 26.2769 63.9464 26.2769C62.8343 26.2769 61.9244 27.1868 61.9244 28.2989" stroke="#073141" stroke-width="1.46509" stroke-miterlimit="22.9256"/>
<path d="M55.8057 44.929V49.2674H62.8629M64.328 49.2674H67.9906V44.929" stroke="#073141" stroke-width="1.46509" stroke-miterlimit="22.9256"/>
<path d="M53.8365 20.12L49.0788 22.4119L50.0899 14.9548L44.8887 9.5162L48.3014 8.89735M49.7433 8.63598L52.2934 8.17361L55.8585 1.54639L59.4236 8.17361L66.8282 9.5163L61.627 14.9549L62.6381 22.412L57.8804 20.1201" stroke="#073141" stroke-width="1.46509" stroke-miterlimit="22.9256"/>
<path fill-rule="evenodd" clip-rule="evenodd" d="M36.8783 15.4907L39.528 20.4161L45.0312 21.414L41.1656 25.4561L41.917 30.9983L36.8783 28.5709L31.8397 30.9983L32.5911 25.4561L28.7256 21.414L34.2287 20.4161L36.8783 15.4907Z" stroke="#073141" stroke-width="1.46509" stroke-miterlimit="22.9256"/>
<path fill-rule="evenodd" clip-rule="evenodd" d="M39.8089 36.0732L41.479 39.1778L44.9478 39.8069L42.5112 42.3547L42.9849 45.8481L39.8089 44.3181L36.6328 45.8481L37.1065 42.3547L34.6699 39.8069L38.1387 39.1778L39.8089 36.0732Z" stroke="#073141" stroke-width="1.46509" stroke-miterlimit="22.9256"/>
<path d="M56.5903 11.9792H58.0554M53.6602 11.9792H55.1252" stroke="#073141" stroke-width="1.46509" stroke-miterlimit="22.9256"/>
<path d="M1.53826 79V65.9091H10.0525V67.897H3.90971V71.451H9.61142V73.4389H3.90971V77.0121H10.1036V79H1.53826ZM14.2616 69.1818L16.2432 72.8061L18.2567 69.1818H20.7048L17.7453 74.0909L20.7559 79H18.3206L16.2432 75.4652L14.1849 79H11.7304L14.7219 74.0909L11.8071 69.1818H14.2616ZM22.4946 82.6818V69.1818H24.7702V70.8054H24.9044C25.0237 70.5668 25.192 70.3132 25.4094 70.0447C25.6267 69.772 25.9207 69.5398 26.2915 69.348C26.6622 69.152 27.1352 69.054 27.7105 69.054C28.469 69.054 29.153 69.2479 29.7623 69.6357C30.376 70.0192 30.8618 70.5881 31.2197 71.3423C31.5819 72.0923 31.7631 73.0128 31.7631 74.1037C31.7631 75.1818 31.5862 76.098 31.2325 76.8523C30.8788 77.6065 30.3973 78.1818 29.7879 78.5781C29.1785 78.9744 28.4882 79.1726 27.7169 79.1726C27.1544 79.1726 26.6878 79.0788 26.317 78.8913C25.9463 78.7038 25.648 78.478 25.4221 78.2138C25.2006 77.9453 25.028 77.6918 24.9044 77.4531H24.8085V82.6818H22.4946ZM24.7638 74.0909C24.7638 74.7259 24.8532 75.282 25.0322 75.7592C25.2155 76.2365 25.4775 76.6094 25.8184 76.8778C26.1636 77.142 26.5812 77.2741 27.0713 77.2741C27.5827 77.2741 28.0109 77.1378 28.3561 76.8651C28.7013 76.5881 28.9612 76.2109 29.1359 75.7337C29.3149 75.2521 29.4044 74.7045 29.4044 74.0909C29.4044 73.4815 29.317 72.9403 29.1423 72.4673C28.9676 71.9943 28.7077 71.6236 28.3625 71.3551C28.0173 71.0866 27.5869 70.9524 27.0713 70.9524C26.577 70.9524 26.1572 71.0824 25.8121 71.3423C25.4669 71.6023 25.2048 71.9666 25.0258 72.4354C24.8511 72.9041 24.7638 73.456 24.7638 74.0909ZM38.0912 79.1918C37.1068 79.1918 36.2567 78.9872 35.5407 78.5781C34.8291 78.1648 34.2815 77.581 33.898 76.8267C33.5145 76.0682 33.3227 75.1754 33.3227 74.1484C33.3227 73.1385 33.5145 72.2521 33.898 71.4893C34.2858 70.7223 34.827 70.1257 35.5216 69.6996C36.2162 69.2692 37.0322 69.054 37.9697 69.054C38.5748 69.054 39.1459 69.152 39.6828 69.348C40.224 69.5398 40.7013 69.8381 41.1146 70.2429C41.5322 70.6477 41.8604 71.1634 42.099 71.7898C42.3376 72.4119 42.4569 73.1534 42.4569 74.0142V74.7237H34.4094V73.1641H40.2389C40.2346 72.7209 40.1388 72.3267 39.9513 71.9815C39.7638 71.6321 39.5017 71.3572 39.165 71.157C38.8327 70.9567 38.4449 70.8565 38.0017 70.8565C37.5287 70.8565 37.1132 70.9716 36.7552 71.2017C36.3973 71.4276 36.1182 71.7259 35.9179 72.0966C35.7219 72.4631 35.6217 72.8658 35.6175 73.3047V74.6662C35.6175 75.2372 35.7219 75.7273 35.9307 76.1364C36.1395 76.5412 36.4314 76.8523 36.8064 77.0696C37.1814 77.2827 37.6203 77.3892 38.1231 77.3892C38.4598 77.3892 38.7645 77.3423 39.0372 77.2486C39.3099 77.1506 39.5464 77.0078 39.7467 76.8203C39.947 76.6328 40.0983 76.4006 40.2006 76.1236L42.3611 76.3665C42.2247 76.9375 41.9648 77.4361 41.5812 77.8622C41.202 78.2841 40.7162 78.6122 40.1238 78.8466C39.5315 79.0767 38.854 79.1918 38.0912 79.1918ZM44.4145 79V69.1818H46.6581V70.8182H46.7604C46.9394 70.2514 47.2462 69.8146 47.6808 69.5078C48.1198 69.1967 48.6205 69.0412 49.183 69.0412C49.3108 69.0412 49.4536 69.0476 49.6112 69.0604C49.7732 69.0689 49.9074 69.0838 50.0139 69.1051V71.2337C49.9159 71.1996 49.7604 71.1697 49.5473 71.1442C49.3385 71.1143 49.1361 71.0994 48.9401 71.0994C48.5182 71.0994 48.1389 71.1911 47.8023 71.3743C47.4699 71.5533 47.2078 71.8026 47.0161 72.1222C46.8243 72.4418 46.7284 72.8104 46.7284 73.228V79H44.4145ZM51.5512 79V69.1818H53.8651V79H51.5512ZM52.7146 67.7884C52.3481 67.7884 52.0328 67.6669 51.7686 67.424C51.5044 67.1768 51.3722 66.8807 51.3722 66.5355C51.3722 66.1861 51.5044 65.8899 51.7686 65.647C52.0328 65.3999 52.3481 65.2763 52.7146 65.2763C53.0853 65.2763 53.4007 65.3999 53.6606 65.647C53.9248 65.8899 54.0569 66.1861 54.0569 66.5355C54.0569 66.8807 53.9248 67.1768 53.6606 67.424C53.4007 67.6669 53.0853 67.7884 52.7146 67.7884ZM60.5912 79.1918C59.6068 79.1918 58.7567 78.9872 58.0407 78.5781C57.3291 78.1648 56.7815 77.581 56.398 76.8267C56.0145 76.0682 55.8227 75.1754 55.8227 74.1484C55.8227 73.1385 56.0145 72.2521 56.398 71.4893C56.7858 70.7223 57.327 70.1257 58.0216 69.6996C58.7162 69.2692 59.5322 69.054 60.4697 69.054C61.0748 69.054 61.6459 69.152 62.1828 69.348C62.724 69.5398 63.2013 69.8381 63.6146 70.2429C64.0322 70.6477 64.3604 71.1634 64.599 71.7898C64.8376 72.4119 64.9569 73.1534 64.9569 74.0142V74.7237H56.9094V73.1641H62.7389C62.7346 72.7209 62.6388 72.3267 62.4513 71.9815C62.2638 71.6321 62.0017 71.3572 61.665 71.157C61.3327 70.9567 60.9449 70.8565 60.5017 70.8565C60.0287 70.8565 59.6132 70.9716 59.2552 71.2017C58.8973 71.4276 58.6182 71.7259 58.4179 72.0966C58.2219 72.4631 58.1217 72.8658 58.1175 73.3047V74.6662C58.1175 75.2372 58.2219 75.7273 58.4307 76.1364C58.6395 76.5412 58.9314 76.8523 59.3064 77.0696C59.6814 77.2827 60.1203 77.3892 60.6231 77.3892C60.9598 77.3892 61.2645 77.3423 61.5372 77.2486C61.8099 77.1506 62.0464 77.0078 62.2467 76.8203C62.447 76.6328 62.5983 76.4006 62.7006 76.1236L64.8611 76.3665C64.7247 76.9375 64.4648 77.4361 64.0812 77.8622C63.702 78.2841 63.2162 78.6122 62.6238 78.8466C62.0315 79.0767 61.354 79.1918 60.5912 79.1918ZM69.2284 73.2472V79H66.9145V69.1818H69.1262V70.8501H69.2412C69.4671 70.3004 69.8271 69.8636 70.3215 69.5398C70.82 69.2159 71.4358 69.054 72.1688 69.054C72.8463 69.054 73.4365 69.1989 73.9394 69.4886C74.4465 69.7784 74.8385 70.1982 75.1155 70.7479C75.3968 71.2976 75.5352 71.9645 75.531 72.7486V79H73.2171V73.1065C73.2171 72.4503 73.0466 71.9368 72.7057 71.5661C72.3691 71.1953 71.9024 71.0099 71.3058 71.0099C70.901 71.0099 70.5409 71.0994 70.2256 71.2784C69.9145 71.4531 69.6695 71.7067 69.4905 72.0391C69.3158 72.3714 69.2284 72.7741 69.2284 73.2472ZM82.1659 79.1918C81.1858 79.1918 80.3442 78.9766 79.6411 78.5462C78.9422 78.1158 78.4031 77.5213 78.0239 76.7628C77.6489 76 77.4614 75.1222 77.4614 74.1293C77.4614 73.1321 77.6531 72.2521 78.0367 71.4893C78.4202 70.7223 78.9614 70.1257 79.6602 69.6996C80.3634 69.2692 81.1943 69.054 82.1531 69.054C82.95 69.054 83.6553 69.201 84.2689 69.495C84.8868 69.7848 85.379 70.196 85.7455 70.7287C86.1119 71.2571 86.3208 71.875 86.3719 72.5824H84.1602C84.0708 72.1094 83.8577 71.7152 83.521 71.3999C83.1887 71.0803 82.7433 70.9205 82.1851 70.9205C81.7121 70.9205 81.2966 71.0483 80.9387 71.304C80.5807 71.5554 80.3016 71.9176 80.1013 72.3906C79.9053 72.8636 79.8073 73.4304 79.8073 74.0909C79.8073 74.7599 79.9053 75.3352 80.1013 75.8168C80.2973 76.294 80.5722 76.6626 80.9259 76.9226C81.2838 77.1783 81.7036 77.3061 82.1851 77.3061C82.526 77.3061 82.8307 77.2422 83.0992 77.1143C83.3719 76.9822 83.5999 76.7926 83.7831 76.5455C83.9664 76.2983 84.0921 75.9979 84.1602 75.6442H86.3719C86.3165 76.3388 86.1119 76.9545 85.7583 77.4915C85.4046 78.0241 84.923 78.4418 84.3137 78.7443C83.7043 79.0426 82.9884 79.1918 82.1659 79.1918ZM92.6185 79.1918C91.6341 79.1918 90.784 78.9872 90.0681 78.5781C89.3564 78.1648 88.8089 77.581 88.4253 76.8267C88.0418 76.0682 87.8501 75.1754 87.8501 74.1484C87.8501 73.1385 88.0418 72.2521 88.4253 71.4893C88.8131 70.7223 89.3543 70.1257 90.0489 69.6996C90.7435 69.2692 91.5596 69.054 92.4971 69.054C93.1022 69.054 93.6732 69.152 94.2101 69.348C94.7513 69.5398 95.2286 69.8381 95.642 70.2429C96.0596 70.6477 96.3877 71.1634 96.6263 71.7898C96.865 72.4119 96.9843 73.1534 96.9843 74.0142V74.7237H88.9367V73.1641H94.7662C94.762 72.7209 94.6661 72.3267 94.4786 71.9815C94.2911 71.6321 94.029 71.3572 93.6924 71.157C93.36 70.9567 92.9722 70.8565 92.529 70.8565C92.056 70.8565 91.6405 70.9716 91.2826 71.2017C90.9246 71.4276 90.6455 71.7259 90.4452 72.0966C90.2492 72.4631 90.1491 72.8658 90.1448 73.3047V74.6662C90.1448 75.2372 90.2492 75.7273 90.458 76.1364C90.6668 76.5412 90.9587 76.8523 91.3337 77.0696C91.7087 77.2827 92.1476 77.3892 92.6505 77.3892C92.9871 77.3892 93.2918 77.3423 93.5645 77.2486C93.8373 77.1506 94.0738 77.0078 94.2741 76.8203C94.4743 76.6328 94.6256 76.4006 94.7279 76.1236L96.8884 76.3665C96.752 76.9375 96.4921 77.4361 96.1086 77.8622C95.7293 78.2841 95.2435 78.6122 94.6512 78.8466C94.0589 79.0767 93.3813 79.1918 92.6185 79.1918Z" fill="#073141"/>
</svg>
