<svg width="100" height="49" viewBox="0 0 100 49" fill="none" xmlns="http://www.w3.org/2000/svg">
<g clip-path="url(#clip0_2021_200)">
<path d="M88.7031 24.1044C88.7031 27.5892 86.0139 30.4764 82.3791 30.4764C78.7431 30.4764 76.1055 27.5892 76.1055 24.1044C76.1055 20.6184 78.7443 17.73 82.3791 17.73C86.0139 17.73 88.7031 20.6196 88.7031 24.1044Z" fill="#FFD43D"/>
<path d="M59.1823 23.9051C59.1823 27.4403 56.3947 30.0791 52.8583 30.0791C49.3735 30.0791 46.5859 27.4391 46.5859 23.9051C46.5859 20.3687 49.3735 17.7803 52.8595 17.7803C56.3947 17.7803 59.1823 20.3699 59.1823 23.9051Z" fill="#FF0C81"/>
<path d="M24.7502 30.4764C28.385 30.4764 31.0742 27.5892 31.0742 24.1044C31.0742 20.6184 28.385 17.73 24.7502 17.73C21.1142 17.73 18.4766 20.6184 18.4766 24.1032C18.4766 27.5892 21.1154 30.4764 24.7502 30.4764Z" fill="#11EEFC"/>
<path d="M82.3781 37.1002C74.8097 37.1002 69.0341 31.2237 69.0341 24.0537C69.0341 16.9329 74.8601 11.0577 82.3781 11.0577C89.9969 11.0577 95.7725 16.9833 95.7725 24.0537C95.7725 31.2237 89.9465 37.0989 82.3781 37.0989V37.1002ZM82.3781 30.4762C86.0141 30.4762 88.7021 27.5889 88.7021 24.1041C88.7021 20.6181 86.0141 17.7297 82.3781 17.7297C78.7433 17.7297 76.1045 20.6181 76.1045 24.1029C76.1045 27.5889 78.7433 30.4762 82.3781 30.4762ZM52.3601 48.4521C46.5845 48.4521 42.1529 45.913 39.9125 41.3314L45.7877 38.1453C46.8833 40.2861 48.9245 41.9793 52.2605 41.9793C56.4437 41.9793 59.2805 39.0417 59.2805 34.2118V33.763C57.9365 35.4562 55.5473 36.7509 52.0613 36.7509C45.1397 36.7509 39.6137 31.3737 39.6137 24.0537C39.6137 16.9329 45.3893 11.1081 52.9577 11.1081C60.6749 11.1081 66.3521 16.6341 66.3521 24.0537V34.0126C66.3521 42.7761 60.3761 48.4521 52.3601 48.4521ZM52.8581 30.0789C56.3933 30.0789 59.1821 27.4389 59.1821 23.9049C59.1821 20.3685 56.3933 17.7801 52.8581 17.7801C49.3721 17.7801 46.5845 20.3697 46.5845 23.9049C46.5845 27.4402 49.3721 30.0789 52.8581 30.0789ZM24.7529 37.1002C17.1845 37.1002 11.4089 31.2237 11.4089 24.0537C11.4089 16.9329 17.2337 11.0577 24.7529 11.0577C32.3705 11.0577 38.1473 16.9833 38.1473 24.0537C38.1473 31.2237 32.3213 37.0989 24.7529 37.0989V37.1002ZM24.7529 30.4762C28.3877 30.4762 31.0769 27.5889 31.0769 24.1041C31.0769 20.6181 28.3877 17.7297 24.7529 17.7297C21.1169 17.7297 18.4793 20.6181 18.4793 24.1029C18.4793 27.5889 21.1181 30.4762 24.7529 30.4762ZM0.664062 0.452148H7.73446V36.4521H0.664062V0.452148ZM99.0641 8.25215C99.0641 9.0478 98.748 9.81086 98.1854 10.3735C97.6228 10.9361 96.8597 11.2521 96.0641 11.2521C95.2684 11.2521 94.5054 10.9361 93.9427 10.3735C93.3801 9.81086 93.0641 9.0478 93.0641 8.25215C93.0641 7.4565 93.3801 6.69344 93.9427 6.13083C94.5054 5.56822 95.2684 5.25215 96.0641 5.25215C96.8597 5.25215 97.6228 5.56822 98.1854 6.13083C98.748 6.69344 99.0641 7.4565 99.0641 8.25215Z" fill="#171A26"/>
</g>
<defs>
<clipPath id="clip0_2021_200">
<rect width="98.4" height="48" fill="white" transform="translate(0.664062 0.452148)"/>
</clipPath>
</defs>
</svg>
