<svg width="125" height="49" viewBox="0 0 125 49" fill="none" xmlns="http://www.w3.org/2000/svg">
<g clip-path="url(#clip0_2021_205)">
<path d="M29.687 0.452148C24.8132 0.452148 20.1392 2.38823 16.6929 5.83448L5.44581 17.0816C1.99956 20.5278 0.0634766 25.2019 0.0634766 30.0757C0.0634766 40.2248 8.2909 48.4521 18.44 48.4521C23.3137 48.4521 27.9878 46.516 31.434 43.0697L39.2137 35.2901C39.2137 35.2899 39.2139 35.2902 39.2137 35.2901L61.8811 12.6227C63.527 10.9768 65.7593 10.0521 68.087 10.0521C71.984 10.0521 75.2878 12.592 76.4332 16.1067L83.587 8.95288C80.3235 3.84149 74.6011 0.452148 68.087 0.452148C63.2132 0.452148 58.5392 2.38823 55.0929 5.83448L24.6459 36.2816C23 37.9275 20.7676 38.8521 18.44 38.8521C13.5928 38.8521 9.66348 34.9229 9.66348 30.0757C9.66348 27.748 10.5881 25.5157 12.234 23.8697L23.4811 12.6227C25.127 10.9768 27.3593 10.0521 29.687 10.0521C33.5841 10.0521 36.8878 12.5921 38.0332 16.1069L45.1872 8.95306C41.9236 3.84159 36.2012 0.452148 29.687 0.452148Z" fill="#394149"/>
<path d="M63.0461 36.2816C61.4002 37.9275 59.1679 38.8521 56.8402 38.8521C52.9437 38.8521 49.6402 36.313 48.4944 32.7989L41.3408 39.9525C44.6045 45.0632 50.3266 48.4521 56.8402 48.4521C61.7139 48.4521 66.388 46.516 69.8343 43.0697L100.281 12.6227C101.927 10.9768 104.16 10.0521 106.487 10.0521C111.334 10.0521 115.264 13.9815 115.264 18.8286C115.264 21.1563 114.339 23.3886 112.693 25.0345L101.446 36.2816C99.8002 37.9275 97.5678 38.8521 95.2402 38.8521C91.3434 38.8521 88.0397 36.3125 86.8941 32.7981L79.7405 39.9518C83.004 45.063 88.7262 48.4521 95.2402 48.4521C100.114 48.4521 104.788 46.516 108.234 43.0697L119.481 31.8227C122.928 28.3765 124.864 23.7024 124.864 18.8286C124.864 8.67957 116.636 0.452148 106.487 0.452148C101.613 0.452148 96.9394 2.38823 93.4931 5.83448L63.0461 36.2816Z" fill="#394149"/>
</g>
<defs>
<clipPath id="clip0_2021_205">
<rect width="124.8" height="48" fill="white" transform="translate(0.0634766 0.452148)"/>
</clipPath>
</defs>
</svg>
