<svg width="204" height="52" viewBox="0 0 204 52" fill="none" xmlns="http://www.w3.org/2000/svg">
<g clip-path="url(#clip0_45_528)">
<mask id="mask0_45_528" style="mask-type:luminance" maskUnits="userSpaceOnUse" x="0" y="0" width="50" height="51">
<path d="M50 0.952148H0V50.9521H50V0.952148Z" fill="white"/>
</mask>
<g mask="url(#mask0_45_528)">
<path fill-rule="evenodd" clip-rule="evenodd" d="M33.034 42.0864C30.608 46.1299 27.6742 47.9521 25 47.9521C22.3256 47.9521 19.392 46.1299 16.9659 42.0864C14.5756 38.1026 13 32.4054 13 25.9521C13 19.4988 14.5756 13.8017 16.9659 9.81797C19.392 5.77452 22.3256 3.95215 25 3.95215C27.6742 3.95215 30.608 5.77452 33.034 9.81797C35.4243 13.8017 37 19.4988 37 25.9521C37 32.4054 35.4243 38.1026 33.034 42.0864ZM50 25.9521C50 12.145 38.807 0.952148 25 0.952148C11.1929 0.952148 0 12.145 0 25.9521C0 39.7591 11.1929 50.9521 25 50.9521C38.807 50.9521 50 39.7591 50 25.9521ZM3 25.9521C3 34.9346 8.38315 42.6596 16.0993 46.0771C12.3996 41.5244 10 34.2054 10 25.9521C10 17.699 12.3996 10.3798 16.0993 5.82702C8.38315 9.24467 3 16.9697 3 25.9521ZM47 25.9521C47 34.9346 41.6167 42.6596 33.9007 46.0771C37.6005 41.5244 40 34.2054 40 25.9521C40 17.699 37.6005 10.3798 33.9007 5.82702C41.6167 9.24467 47 16.9697 47 25.9521ZM25 28.7021C26.5187 28.7021 27.75 27.4709 27.75 25.9521C27.75 24.4334 26.5187 23.2021 25 23.2021C23.4812 23.2021 22.25 24.4334 22.25 25.9521C22.25 27.4709 23.4812 28.7021 25 28.7021Z" fill="url(#paint0_linear_45_528)"/>
</g>
<path d="M62.6211 36.4521C62.5345 36.4521 62.4565 36.4261 62.3871 36.3741C62.3351 36.3048 62.3091 36.2268 62.3091 36.1401V18.5641C62.3091 18.4775 62.3351 18.4081 62.3871 18.3561C62.4565 18.2868 62.5345 18.2521 62.6211 18.2521H68.9651C70.1958 18.2521 71.2791 18.4688 72.2151 18.9021C73.1511 19.3355 73.8705 19.9595 74.3731 20.7741C74.8931 21.5715 75.1531 22.5075 75.1531 23.5821V31.1221C75.1531 32.1968 74.8931 33.1415 74.3731 33.9561C73.8705 34.7535 73.1511 35.3688 72.2151 35.8021C71.2791 36.2355 70.1958 36.4521 68.9651 36.4521H62.6211ZM65.3251 33.7221C65.3251 33.8088 65.3685 33.8521 65.4551 33.8521H69.0951C70.0138 33.8521 70.7418 33.5661 71.2791 32.9941C71.8338 32.4048 72.1198 31.6248 72.1371 30.6541V24.0761C72.1371 23.0881 71.8598 22.3081 71.3051 21.7361C70.7505 21.1468 70.0051 20.8521 69.0691 20.8521H65.4551C65.3685 20.8521 65.3251 20.8955 65.3251 20.9821V33.7221ZM89.3014 28.3141C89.3707 28.7475 89.4054 29.2328 89.4054 29.7701L89.3794 30.5761C89.3794 30.7841 89.2754 30.8881 89.0674 30.8881H80.9294C80.8427 30.8881 80.7994 30.9315 80.7994 31.0181C80.8514 31.5901 80.9294 31.9801 81.0334 32.1881C81.4494 33.4361 82.4634 34.0688 84.0754 34.0861C85.2541 34.0861 86.1901 33.6008 86.8834 32.6301C86.9527 32.5261 87.0394 32.4741 87.1434 32.4741C87.2127 32.4741 87.2734 32.5001 87.3254 32.5521L88.9374 33.8781C89.0934 33.9995 89.1194 34.1381 89.0154 34.2941C88.4781 35.0568 87.7587 35.6461 86.8574 36.0621C85.9734 36.4781 84.9854 36.6861 83.8934 36.6861C82.5414 36.6861 81.3887 36.3828 80.4354 35.7761C79.4994 35.1695 78.8147 34.3201 78.3814 33.2281C77.9827 32.2921 77.7834 30.9921 77.7834 29.3281C77.7834 28.3228 77.8874 27.5081 78.0954 26.8841C78.4421 25.6708 79.0921 24.7175 80.0454 24.0241C81.0161 23.3135 82.1774 22.9581 83.5294 22.9581C86.9441 22.9581 88.8681 24.7435 89.3014 28.3141ZM83.5294 25.5581C82.8881 25.5581 82.3507 25.7228 81.9174 26.0521C81.5014 26.3641 81.2067 26.8061 81.0334 27.3781C80.9294 27.6728 80.8601 28.0541 80.8254 28.5221C80.7907 28.6088 80.8254 28.6521 80.9294 28.6521H86.2074C86.2941 28.6521 86.3374 28.6088 86.3374 28.5221C86.3027 28.0888 86.2507 27.7595 86.1814 27.5341C86.0254 26.9101 85.7134 26.4248 85.2454 26.0781C84.7947 25.7315 84.2227 25.5581 83.5294 25.5581ZM96.8987 36.6081C95.8067 36.6081 94.8447 36.4521 94.0127 36.1401C93.198 35.8108 92.5653 35.3688 92.1147 34.8141C91.664 34.2421 91.4387 33.6095 91.4387 32.9161V32.6821C91.4387 32.5955 91.4647 32.5261 91.5167 32.4741C91.586 32.4048 91.664 32.3701 91.7507 32.3701H94.0387C94.1253 32.3701 94.1947 32.4048 94.2467 32.4741C94.316 32.5261 94.3507 32.5955 94.3507 32.6821V32.7341C94.3507 33.1675 94.5847 33.5488 95.0527 33.8781C95.538 34.1901 96.1447 34.3461 96.8727 34.3461C97.566 34.3461 98.1293 34.2075 98.5627 33.9301C98.996 33.6355 99.2127 33.2715 99.2127 32.8381C99.2127 32.4395 99.0307 32.1448 98.6667 31.9541C98.32 31.7461 97.748 31.5295 96.9507 31.3041L95.9627 30.9921C95.0787 30.7321 94.3333 30.4548 93.7267 30.1601C93.12 29.8655 92.6087 29.4668 92.1927 28.9641C91.7767 28.4441 91.5687 27.7855 91.5687 26.9881C91.5687 25.7748 92.0453 24.8128 92.9987 24.1021C93.952 23.3741 95.2087 23.0101 96.7687 23.0101C97.826 23.0101 98.7533 23.1835 99.5507 23.5301C100.348 23.8595 100.963 24.3275 101.397 24.9341C101.83 25.5235 102.047 26.1995 102.047 26.9621C102.047 27.0488 102.012 27.1268 101.943 27.1961C101.891 27.2481 101.821 27.2741 101.735 27.2741H99.5247C99.438 27.2741 99.36 27.2481 99.2907 27.1961C99.2387 27.1268 99.2127 27.0488 99.2127 26.9621C99.2127 26.5115 98.9873 26.1388 98.5367 25.8441C98.1033 25.5321 97.5053 25.3761 96.7427 25.3761C96.0667 25.3761 95.512 25.5061 95.0787 25.7661C94.6627 26.0088 94.4547 26.3555 94.4547 26.8061C94.4547 27.2221 94.654 27.5428 95.0527 27.7681C95.4687 27.9761 96.1533 28.2101 97.1067 28.4701L97.6787 28.6261C98.5973 28.9035 99.3687 29.1895 99.9927 29.4841C100.617 29.7615 101.145 30.1601 101.579 30.6801C102.012 31.1828 102.229 31.8415 102.229 32.6561C102.229 33.8868 101.743 34.8575 100.773 35.5681C99.802 36.2615 98.5107 36.6081 96.8987 36.6081ZM106.497 21.3461C105.96 21.3461 105.518 21.1728 105.171 20.8261C104.824 20.4795 104.651 20.0375 104.651 19.5001C104.651 18.9628 104.824 18.5208 105.171 18.1741C105.518 17.8275 105.96 17.6541 106.497 17.6541C107.034 17.6541 107.476 17.8275 107.823 18.1741C108.17 18.5208 108.343 18.9628 108.343 19.5001C108.343 20.0375 108.17 20.4795 107.823 20.8261C107.476 21.1728 107.034 21.3461 106.497 21.3461ZM105.249 36.4521C105.162 36.4521 105.084 36.4261 105.015 36.3741C104.963 36.3048 104.937 36.2268 104.937 36.1401V23.4521C104.937 23.3655 104.963 23.2961 105.015 23.2441C105.084 23.1748 105.162 23.1401 105.249 23.1401H107.641C107.728 23.1401 107.797 23.1748 107.849 23.2441C107.918 23.2961 107.953 23.3655 107.953 23.4521V36.1401C107.953 36.2268 107.918 36.3048 107.849 36.3741C107.797 36.4261 107.728 36.4521 107.641 36.4521H105.249ZM119.546 23.4781C119.546 23.3915 119.572 23.3221 119.624 23.2701C119.693 23.2008 119.771 23.1661 119.858 23.1661H122.25C122.337 23.1661 122.406 23.2008 122.458 23.2701C122.527 23.3221 122.562 23.3915 122.562 23.4781V35.5681C122.562 37.7348 121.938 39.2775 120.69 40.1961C119.459 41.1321 117.839 41.6001 115.828 41.6001C115.291 41.6001 114.762 41.5741 114.242 41.5221C114.051 41.5048 113.956 41.3921 113.956 41.1841L114.034 39.0521C114.034 38.8615 114.155 38.7661 114.398 38.7661C114.901 38.8181 115.351 38.8441 115.75 38.8441C117.05 38.8441 118.003 38.5841 118.61 38.0641C119.234 37.5615 119.546 36.7035 119.546 35.4901V35.2821C119.546 35.2301 119.529 35.2041 119.494 35.2041C119.459 35.1868 119.425 35.1955 119.39 35.2301C118.679 35.9928 117.674 36.3741 116.374 36.3741C115.247 36.3741 114.216 36.0881 113.28 35.5161C112.344 34.9441 111.694 34.0688 111.33 32.8901C111.105 32.0755 110.992 31.0268 110.992 29.7441C110.992 28.3055 111.131 27.2048 111.408 26.4421C111.755 25.3848 112.353 24.5441 113.202 23.9201C114.051 23.2788 115.048 22.9581 116.192 22.9581C117.561 22.9581 118.627 23.3568 119.39 24.1541C119.425 24.2061 119.459 24.2235 119.494 24.2061C119.529 24.1888 119.546 24.1541 119.546 24.1021V23.4781ZM119.364 32.0321C119.433 31.7721 119.477 31.4948 119.494 31.2001C119.529 30.8881 119.546 30.3941 119.546 29.7181C119.546 29.0595 119.529 28.5915 119.494 28.3141C119.477 28.0195 119.425 27.7335 119.338 27.4561C119.199 26.8841 118.913 26.4248 118.48 26.0781C118.064 25.7315 117.527 25.5581 116.868 25.5581C116.244 25.5581 115.715 25.7315 115.282 26.0781C114.849 26.4248 114.537 26.8841 114.346 27.4561C114.138 27.9415 114.034 28.7041 114.034 29.7441C114.034 30.8188 114.121 31.5728 114.294 32.0061C114.467 32.5608 114.779 33.0201 115.23 33.3841C115.698 33.7308 116.253 33.9041 116.894 33.9041C117.57 33.9041 118.116 33.7308 118.532 33.3841C118.948 33.0375 119.225 32.5868 119.364 32.0321ZM132.047 22.9581C133.451 22.9581 134.569 23.3741 135.401 24.2061C136.251 25.0381 136.675 26.1735 136.675 27.6121V36.1401C136.675 36.2268 136.641 36.3048 136.571 36.3741C136.519 36.4261 136.45 36.4521 136.363 36.4521H133.971C133.885 36.4521 133.807 36.4261 133.737 36.3741C133.685 36.3048 133.659 36.2268 133.659 36.1401V28.2361C133.659 27.4388 133.434 26.7975 132.983 26.3121C132.533 25.8095 131.935 25.5581 131.189 25.5581C130.444 25.5581 129.837 25.8008 129.369 26.2861C128.919 26.7715 128.693 27.4128 128.693 28.2101V36.1401C128.693 36.2268 128.659 36.3048 128.589 36.3741C128.537 36.4261 128.468 36.4521 128.381 36.4521H125.989C125.903 36.4521 125.825 36.4261 125.755 36.3741C125.703 36.3048 125.677 36.2268 125.677 36.1401V23.4781C125.677 23.3915 125.703 23.3221 125.755 23.2701C125.825 23.2008 125.903 23.1661 125.989 23.1661H128.381C128.468 23.1661 128.537 23.2008 128.589 23.2701C128.659 23.3221 128.693 23.3915 128.693 23.4781V24.3101C128.693 24.3621 128.711 24.3968 128.745 24.4141C128.78 24.4315 128.806 24.4141 128.823 24.3621C129.534 23.4261 130.609 22.9581 132.047 22.9581ZM152.404 20.5401C152.404 20.6268 152.369 20.7048 152.3 20.7741C152.248 20.8261 152.179 20.8521 152.092 20.8521H143.252C143.165 20.8521 143.122 20.8955 143.122 20.9821V25.8441C143.122 25.9308 143.165 25.9741 143.252 25.9741H149.206C149.293 25.9741 149.362 26.0088 149.414 26.0781C149.483 26.1301 149.518 26.1995 149.518 26.2861V28.2621C149.518 28.3488 149.483 28.4268 149.414 28.4961C149.362 28.5481 149.293 28.5741 149.206 28.5741H143.252C143.165 28.5741 143.122 28.6175 143.122 28.7041V36.1401C143.122 36.2268 143.087 36.3048 143.018 36.3741C142.966 36.4261 142.897 36.4521 142.81 36.4521H140.418C140.331 36.4521 140.253 36.4261 140.184 36.3741C140.132 36.3048 140.106 36.2268 140.106 36.1401V18.5641C140.106 18.4775 140.132 18.4081 140.184 18.3561C140.253 18.2868 140.331 18.2521 140.418 18.2521H152.092C152.179 18.2521 152.248 18.2868 152.3 18.3561C152.369 18.4081 152.404 18.4775 152.404 18.5641V20.5401ZM158.767 36.6601C157.397 36.6601 156.219 36.3135 155.231 35.6201C154.26 34.9268 153.575 33.9648 153.177 32.7341C152.882 31.7981 152.735 30.8101 152.735 29.7701C152.735 28.6608 152.873 27.6728 153.151 26.8061C153.549 25.5928 154.243 24.6481 155.231 23.9721C156.219 23.2961 157.406 22.9581 158.793 22.9581C160.11 22.9581 161.245 23.2961 162.199 23.9721C163.169 24.6481 163.854 25.5841 164.253 26.7801C164.565 27.6121 164.721 28.6001 164.721 29.7441C164.721 30.8361 164.573 31.8241 164.279 32.7081C163.88 33.9388 163.195 34.9095 162.225 35.6201C161.254 36.3135 160.101 36.6601 158.767 36.6601ZM158.767 34.0601C159.408 34.0601 159.954 33.8781 160.405 33.5141C160.873 33.1501 161.211 32.6388 161.419 31.9801C161.592 31.4081 161.679 30.6801 161.679 29.7961C161.679 28.8601 161.592 28.1321 161.419 27.6121C161.228 26.9535 160.899 26.4508 160.431 26.1041C159.963 25.7401 159.391 25.5581 158.715 25.5581C158.073 25.5581 157.519 25.7401 157.051 26.1041C156.583 26.4508 156.245 26.9535 156.037 27.6121C155.863 28.2188 155.777 28.9468 155.777 29.7961C155.777 30.6455 155.863 31.3735 156.037 31.9801C156.227 32.6388 156.557 33.1501 157.025 33.5141C157.51 33.8781 158.091 34.0601 158.767 34.0601ZM173.76 23.0101C174.315 23.0101 174.8 23.1228 175.216 23.3481C175.355 23.4175 175.407 23.5475 175.372 23.7381L174.93 26.0781C174.913 26.2861 174.791 26.3468 174.566 26.2601C174.306 26.1735 174.003 26.1301 173.656 26.1301C173.431 26.1301 173.257 26.1388 173.136 26.1561C172.408 26.1908 171.801 26.4508 171.316 26.9361C170.831 27.4041 170.588 28.0195 170.588 28.7821V36.1401C170.588 36.2268 170.553 36.3048 170.484 36.3741C170.432 36.4261 170.363 36.4521 170.276 36.4521H167.884C167.797 36.4521 167.719 36.4261 167.65 36.3741C167.598 36.3048 167.572 36.2268 167.572 36.1401V23.4781C167.572 23.3915 167.598 23.3221 167.65 23.2701C167.719 23.2008 167.797 23.1661 167.884 23.1661H170.276C170.363 23.1661 170.432 23.2008 170.484 23.2701C170.553 23.3221 170.588 23.3915 170.588 23.4781V24.6481C170.588 24.7175 170.597 24.7608 170.614 24.7781C170.649 24.7781 170.683 24.7521 170.718 24.7001C171.446 23.5735 172.46 23.0101 173.76 23.0101ZM185.003 23.4781C185.003 23.3915 185.029 23.3221 185.081 23.2701C185.15 23.2008 185.228 23.1661 185.315 23.1661H187.707C187.794 23.1661 187.863 23.2008 187.915 23.2701C187.984 23.3221 188.019 23.3915 188.019 23.4781V35.5681C188.019 37.7348 187.395 39.2775 186.147 40.1961C184.916 41.1321 183.296 41.6001 181.285 41.6001C180.748 41.6001 180.219 41.5741 179.699 41.5221C179.508 41.5048 179.413 41.3921 179.413 41.1841L179.491 39.0521C179.491 38.8615 179.612 38.7661 179.855 38.7661C180.358 38.8181 180.808 38.8441 181.207 38.8441C182.507 38.8441 183.46 38.5841 184.067 38.0641C184.691 37.5615 185.003 36.7035 185.003 35.4901V35.2821C185.003 35.2301 184.986 35.2041 184.951 35.2041C184.916 35.1868 184.882 35.1955 184.847 35.2301C184.136 35.9928 183.131 36.3741 181.831 36.3741C180.704 36.3741 179.673 36.0881 178.737 35.5161C177.801 34.9441 177.151 34.0688 176.787 32.8901C176.562 32.0755 176.449 31.0268 176.449 29.7441C176.449 28.3055 176.588 27.2048 176.865 26.4421C177.212 25.3848 177.81 24.5441 178.659 23.9201C179.508 23.2788 180.505 22.9581 181.649 22.9581C183.018 22.9581 184.084 23.3568 184.847 24.1541C184.882 24.2061 184.916 24.2235 184.951 24.2061C184.986 24.1888 185.003 24.1541 185.003 24.1021V23.4781ZM184.821 32.0321C184.89 31.7721 184.934 31.4948 184.951 31.2001C184.986 30.8881 185.003 30.3941 185.003 29.7181C185.003 29.0595 184.986 28.5915 184.951 28.3141C184.934 28.0195 184.882 27.7335 184.795 27.4561C184.656 26.8841 184.37 26.4248 183.937 26.0781C183.521 25.7315 182.984 25.5581 182.325 25.5581C181.701 25.5581 181.172 25.7315 180.739 26.0781C180.306 26.4248 179.994 26.8841 179.803 27.4561C179.595 27.9415 179.491 28.7041 179.491 29.7441C179.491 30.8188 179.578 31.5728 179.751 32.0061C179.924 32.5608 180.236 33.0201 180.687 33.3841C181.155 33.7308 181.71 33.9041 182.351 33.9041C183.027 33.9041 183.573 33.7308 183.989 33.3841C184.405 33.0375 184.682 32.5868 184.821 32.0321ZM202.34 28.3141C202.41 28.7475 202.444 29.2328 202.444 29.7701L202.418 30.5761C202.418 30.7841 202.314 30.8881 202.106 30.8881H193.968C193.882 30.8881 193.838 30.9315 193.838 31.0181C193.89 31.5901 193.968 31.9801 194.072 32.1881C194.488 33.4361 195.502 34.0688 197.114 34.0861C198.293 34.0861 199.229 33.6008 199.922 32.6301C199.992 32.5261 200.078 32.4741 200.182 32.4741C200.252 32.4741 200.312 32.5001 200.364 32.5521L201.976 33.8781C202.132 33.9995 202.158 34.1381 202.054 34.2941C201.517 35.0568 200.798 35.6461 199.896 36.0621C199.012 36.4781 198.024 36.6861 196.932 36.6861C195.58 36.6861 194.428 36.3828 193.474 35.7761C192.538 35.1695 191.854 34.3201 191.42 33.2281C191.022 32.2921 190.822 30.9921 190.822 29.3281C190.822 28.3228 190.926 27.5081 191.134 26.8841C191.481 25.6708 192.131 24.7175 193.084 24.0241C194.055 23.3135 195.216 22.9581 196.568 22.9581C199.983 22.9581 201.907 24.7435 202.34 28.3141ZM196.568 25.5581C195.927 25.5581 195.39 25.7228 194.956 26.0521C194.54 26.3641 194.246 26.8061 194.072 27.3781C193.968 27.6728 193.899 28.0541 193.864 28.5221C193.83 28.6088 193.864 28.6521 193.968 28.6521H199.246C199.333 28.6521 199.376 28.6088 199.376 28.5221C199.342 28.0888 199.29 27.7595 199.22 27.5341C199.064 26.9101 198.752 26.4248 198.284 26.0781C197.834 25.7315 197.262 25.5581 196.568 25.5581Z" fill="#073141"/>
</g>
<defs>
<linearGradient id="paint0_linear_45_528" x1="-0.5" y1="25.4521" x2="49" y2="25.4521" gradientUnits="userSpaceOnUse">
<stop stop-color="#1D7293"/>
<stop offset="1" stop-color="#073141"/>
</linearGradient>
<clipPath id="clip0_45_528">
<rect width="204" height="51" fill="white" transform="translate(0 0.452148)"/>
</clipPath>
</defs>
</svg>
